<svg xmlns="http://www.w3.org/2000/svg" xmlns:xlink="http://www.w3.org/1999/xlink" width="500" zoomAndPan="magnify" viewBox="0 0 375 374.999991" height="500" preserveAspectRatio="xMidYMid meet" version="1.0"><defs><clipPath id="d3d4959132"><path d="M 95 88 L 212 88 L 212 206 L 95 206 Z M 95 88 " clip-rule="nonzero"/></clipPath><clipPath id="8e0ddf456e"><path d="M 82.96875 176.207031 L 182.671875 76.507812 L 224.035156 117.871094 L 124.335938 217.574219 Z M 82.96875 176.207031 " clip-rule="nonzero"/></clipPath><clipPath id="e8657bd429"><path d="M 103.511719 196.75 C 108.960938 202.199219 116.347656 205.257812 124.054688 205.257812 C 131.757812 205.257812 139.148438 202.199219 144.597656 196.75 L 203.054688 138.289062 C 208.503906 132.84375 211.566406 125.453125 211.566406 117.746094 C 211.566406 110.042969 208.503906 102.652344 203.054688 97.207031 C 197.609375 91.757812 190.21875 88.695312 182.511719 88.695312 C 174.808594 88.695312 167.417969 91.757812 161.972656 97.207031 L 103.511719 155.664062 C 98.0625 161.113281 95 168.503906 95 176.207031 C 95 183.914062 98.0625 191.300781 103.511719 196.75 Z M 103.511719 196.75 " clip-rule="nonzero"/></clipPath><clipPath id="094a9a211a"><path d="M 82.96875 176.207031 L 182.671875 76.507812 L 223.507812 117.339844 L 123.804688 217.042969 Z M 82.96875 176.207031 " clip-rule="nonzero"/></clipPath><clipPath id="457a7cd5fd"><path d="M 82.96875 176.207031 L 182.671875 76.507812 L 223.507812 117.339844 L 123.804688 217.042969 Z M 82.96875 176.207031 " clip-rule="nonzero"/></clipPath><clipPath id="be0464c001"><path d="M 142 136 L 260 136 L 260 254 L 142 254 Z M 142 136 " clip-rule="nonzero"/></clipPath><clipPath id="7bab313478"><path d="M 130.882812 224.125 L 230.585938 124.421875 L 271.953125 165.789062 L 172.25 265.488281 Z M 130.882812 224.125 " clip-rule="nonzero"/></clipPath><clipPath id="40ce11e8ad"><path d="M 151.425781 244.667969 C 156.875 250.113281 164.265625 253.175781 171.96875 253.175781 C 179.675781 253.175781 187.0625 250.113281 192.511719 244.667969 L 250.972656 186.207031 C 256.417969 180.757812 259.480469 173.367188 259.480469 165.664062 C 259.480469 157.957031 256.417969 150.570312 250.972656 145.121094 C 245.523438 139.671875 238.132812 136.613281 230.429688 136.613281 C 222.722656 136.613281 215.335938 139.671875 209.886719 145.121094 L 151.425781 203.582031 C 145.976562 209.027344 142.917969 216.417969 142.917969 224.125 C 142.917969 231.828125 145.976562 239.21875 151.425781 244.667969 Z M 151.425781 244.667969 " clip-rule="nonzero"/></clipPath><clipPath id="46da989277"><path d="M 130.882812 224.125 L 230.585938 124.421875 L 271.421875 165.257812 L 171.71875 264.957031 Z M 130.882812 224.125 " clip-rule="nonzero"/></clipPath><clipPath id="255a6097a7"><path d="M 130.882812 224.125 L 230.585938 124.421875 L 271.421875 165.257812 L 171.71875 264.957031 Z M 130.882812 224.125 " clip-rule="nonzero"/></clipPath></defs><g clip-path="url(#d3d4959132)"><g clip-path="url(#8e0ddf456e)"><g clip-path="url(#e8657bd429)"><g clip-path="url(#094a9a211a)"><g clip-path="url(#457a7cd5fd)"><path fill="#ffffff" d="M 90.078125 169.164062 L 175.46875 83.769531 C 175.933594 83.308594 176.4375 82.890625 176.984375 82.527344 C 177.53125 82.160156 178.109375 81.855469 178.714844 81.601562 C 179.324219 81.351562 179.949219 81.160156 180.59375 81.03125 C 181.238281 80.90625 181.886719 80.839844 182.542969 80.839844 C 183.203125 80.839844 183.851562 80.90625 184.496094 81.03125 C 185.140625 81.160156 185.765625 81.351562 186.375 81.601562 C 186.980469 81.855469 187.558594 82.160156 188.105469 82.527344 C 188.652344 82.890625 189.15625 83.308594 189.621094 83.769531 L 216.488281 110.640625 C 216.953125 111.105469 217.367188 111.609375 217.734375 112.15625 C 218.097656 112.703125 218.40625 113.277344 218.660156 113.886719 C 218.910156 114.492188 219.097656 115.117188 219.226562 115.761719 C 219.355469 116.40625 219.421875 117.058594 219.421875 117.714844 C 219.421875 118.371094 219.355469 119.023438 219.226562 119.667969 C 219.097656 120.3125 218.910156 120.9375 218.660156 121.546875 C 218.40625 122.152344 218.097656 122.730469 217.734375 123.273438 C 217.367188 123.820312 216.953125 124.328125 216.488281 124.792969 L 131.097656 210.183594 C 130.632812 210.648438 130.125 211.0625 129.582031 211.429688 C 129.035156 211.792969 128.457031 212.101562 127.851562 212.351562 C 127.242188 212.605469 126.617188 212.792969 125.972656 212.921875 C 125.328125 213.050781 124.675781 213.113281 124.019531 213.113281 C 123.363281 213.113281 122.710938 213.050781 122.066406 212.921875 C 121.421875 212.792969 120.796875 212.605469 120.191406 212.351562 C 119.582031 212.101562 119.007812 211.792969 118.460938 211.429688 C 117.914062 211.0625 117.410156 210.648438 116.945312 210.183594 L 90.078125 183.316406 C 89.613281 182.851562 89.195312 182.347656 88.832031 181.800781 C 88.46875 181.253906 88.160156 180.675781 87.90625 180.070312 C 87.65625 179.460938 87.464844 178.835938 87.335938 178.191406 C 87.210938 177.546875 87.144531 176.898438 87.144531 176.238281 C 87.144531 175.582031 87.210938 174.933594 87.335938 174.289062 C 87.464844 173.644531 87.65625 173.015625 87.90625 172.410156 C 88.160156 171.804688 88.46875 171.226562 88.832031 170.679688 C 89.195312 170.132812 89.613281 169.628906 90.078125 169.164062 Z M 90.078125 169.164062 " fill-opacity="1" fill-rule="nonzero"/></g></g></g></g></g><g clip-path="url(#be0464c001)"><g clip-path="url(#7bab313478)"><g clip-path="url(#40ce11e8ad)"><g clip-path="url(#46da989277)"><g clip-path="url(#255a6097a7)"><path fill="#ffffff" d="M 137.992188 217.078125 L 223.382812 131.6875 C 223.847656 131.222656 224.355469 130.808594 224.902344 130.441406 C 225.445312 130.078125 226.023438 129.769531 226.628906 129.519531 C 227.238281 129.265625 227.863281 129.078125 228.507812 128.949219 C 229.152344 128.820312 229.804688 128.757812 230.460938 128.757812 C 231.117188 128.757812 231.769531 128.820312 232.414062 128.949219 C 233.058594 129.078125 233.683594 129.265625 234.289062 129.519531 C 234.898438 129.769531 235.472656 130.078125 236.019531 130.441406 C 236.566406 130.808594 237.070312 131.222656 237.535156 131.6875 L 264.40625 158.554688 C 264.867188 159.019531 265.285156 159.523438 265.648438 160.070312 C 266.015625 160.617188 266.324219 161.195312 266.574219 161.800781 C 266.824219 162.410156 267.015625 163.035156 267.144531 163.679688 C 267.269531 164.324219 267.335938 164.972656 267.335938 165.632812 C 267.335938 166.289062 267.269531 166.9375 267.144531 167.582031 C 267.015625 168.226562 266.824219 168.855469 266.574219 169.460938 C 266.324219 170.066406 266.015625 170.644531 265.648438 171.191406 C 265.285156 171.738281 264.867188 172.242188 264.40625 172.707031 L 179.011719 258.097656 C 178.546875 258.5625 178.042969 258.980469 177.496094 259.34375 C 176.949219 259.710938 176.371094 260.015625 175.765625 260.269531 C 175.160156 260.519531 174.53125 260.710938 173.886719 260.839844 C 173.242188 260.964844 172.59375 261.03125 171.9375 261.03125 C 171.277344 261.03125 170.628906 260.964844 169.984375 260.839844 C 169.339844 260.710938 168.714844 260.519531 168.105469 260.269531 C 167.5 260.015625 166.921875 259.710938 166.375 259.34375 C 165.828125 258.980469 165.324219 258.5625 164.859375 258.097656 L 137.992188 231.230469 C 137.527344 230.765625 137.113281 230.261719 136.746094 229.714844 C 136.382812 229.167969 136.074219 228.59375 135.824219 227.984375 C 135.570312 227.378906 135.382812 226.753906 135.253906 226.109375 C 135.125 225.464844 135.0625 224.8125 135.0625 224.15625 C 135.0625 223.5 135.125 222.847656 135.253906 222.203125 C 135.382812 221.558594 135.570312 220.933594 135.824219 220.324219 C 136.074219 219.71875 136.382812 219.140625 136.746094 218.59375 C 137.113281 218.050781 137.527344 217.542969 137.992188 217.078125 Z M 137.992188 217.078125 " fill-opacity="1" fill-rule="nonzero"/></g></g></g></g></g></svg>